<svg width="44" height="54" viewBox="0 0 44 54" fill="none" xmlns="http://www.w3.org/2000/svg">
<path d="M5 53.9355H39C41.7614 53.9355 44 51.6969 44 48.9355V12.8113C44 11.4293 43.428 10.1089 42.4197 9.16364L34.0876 1.35231C33.1609 0.483503 31.9382 0 30.6679 0H5C2.23858 0 0 2.23858 0 5.00001V48.9355C0 51.6969 2.23858 53.9355 5 53.9355Z" fill="#38B54A"/>
<path d="M9.64941 41.3896C9.64941 41.152 9.71126 40.9697 9.83496 40.8428C9.95866 40.7158 10.1377 40.6523 10.3721 40.6523C10.6097 40.6523 10.7904 40.7191 10.9141 40.8525C11.0378 40.9827 11.0996 41.1618 11.0996 41.3896C11.0996 41.6208 11.0361 41.8047 10.9092 41.9414C10.7855 42.0749 10.6064 42.1416 10.3721 42.1416C10.1377 42.1416 9.95866 42.0749 9.83496 41.9414C9.71126 41.8079 9.64941 41.624 9.64941 41.3896ZM11.793 43.9922C11.474 43.9922 11.207 43.9515 10.9922 43.8701V42.8887C11.2656 42.957 11.5033 42.9912 11.7051 42.9912C12.3431 42.9912 12.6621 42.5876 12.6621 41.7803V34.8613H13.834V41.7412C13.834 42.4704 13.6598 43.027 13.3115 43.4111C12.9665 43.7985 12.4603 43.9922 11.793 43.9922ZM20.4111 37.0195C20.4111 37.765 20.167 38.3363 19.6787 38.7334C19.1904 39.1305 18.4954 39.3291 17.5938 39.3291H16.8516V42H15.6846V34.8613H17.7402C18.6322 34.8613 19.2995 35.0436 19.7422 35.4082C20.1882 35.7728 20.4111 36.3099 20.4111 37.0195ZM16.8516 38.3477H17.4717C18.0706 38.3477 18.5101 38.2435 18.79 38.0352C19.07 37.8268 19.21 37.5013 19.21 37.0586C19.21 36.6484 19.0846 36.3424 18.834 36.1406C18.5833 35.9388 18.1927 35.8379 17.6621 35.8379H16.8516V38.3477ZM25.875 42H21.8369V34.8613H25.875V35.8477H23.0039V37.791H25.6943V38.7676H23.0039V41.0088H25.875V42ZM30.3428 38.1279H32.9697V41.7119C32.54 41.8519 32.1266 41.9512 31.7295 42.0098C31.3356 42.0684 30.9092 42.0977 30.4502 42.0977C29.3695 42.0977 28.5361 41.7786 27.9502 41.1406C27.3643 40.4993 27.0713 39.596 27.0713 38.4307C27.0713 37.2816 27.4017 36.3831 28.0625 35.7354C28.7233 35.0843 29.6331 34.7588 30.792 34.7588C31.5374 34.7588 32.2438 34.902 32.9111 35.1885L32.501 36.1602C31.9215 35.8932 31.3421 35.7598 30.7627 35.7598C30.001 35.7598 29.3988 35.999 28.9561 36.4775C28.5133 36.9561 28.292 37.6104 28.292 38.4404C28.292 39.3128 28.4906 39.9769 28.8877 40.4326C29.2881 40.8851 29.8626 41.1113 30.6113 41.1113C30.9889 41.1113 31.3926 41.0641 31.8223 40.9697V39.1289H30.3428V38.1279Z" fill="white"/>
<path d="M26.9677 17.7419L16.3225 29.0968H37.6128L26.9677 17.7419Z" fill="#D9D9D9"/>
<path d="M19.5162 14.9032L5.67749 29.0968H33.3549L19.5162 14.9032Z" fill="white"/>
</svg>
